<svg width="20" height="50" viewBox="0 0 80 76" fill="none" xmlns="http://www.w3.org/2000/svg">
<path d="M63.8 40.7464C63.9333 39.8018 64 38.8256 64 37.7865C64 36.7788 63.9333 35.7712 63.7666 34.8265L70.5333 29.8513C71.1333 29.4105 71.3 28.5603 70.9333 27.9305L64.5333 17.4762C64.1333 16.7835 63.3 16.5631 62.5666 16.7835L54.6 19.8064C52.9333 18.6098 51.1666 17.6022 49.2 16.8465L48 8.84832C47.8666 8.09259 47.2 7.55728 46.4 7.55728H33.6C32.8 7.55728 32.1666 8.09259 32.0333 8.84832L30.8333 16.8465C28.8666 17.6022 27.0666 18.6413 25.4333 19.8064L17.4666 16.7835C16.7333 16.5316 15.9 16.7835 15.5 17.4762L9.13329 27.9305C8.73329 28.5918 8.86663 29.4105 9.53329 29.8513L16.3 34.8265C16.1333 35.7712 16 36.8103 16 37.7865C16 38.7626 16.0666 39.8018 16.2333 40.7464L9.46663 45.7216C8.86663 46.1625 8.69996 47.0127 9.06663 47.6424L15.4666 58.0967C15.8666 58.7895 16.7 59.0099 17.4333 58.7895L25.4 55.7665C27.0666 56.9631 28.8333 57.9708 30.8 58.7265L32 66.7246C32.1666 67.4804 32.8 68.0157 33.6 68.0157H46.4C47.2 68.0157 47.8666 67.4804 47.9666 66.7246L49.1666 58.7265C51.1333 57.9708 52.9333 56.9631 54.5666 55.7665L62.5333 58.7895C63.2666 59.0414 64.1 58.7895 64.5 58.0967L70.9 47.6424C71.3 46.9497 71.1333 46.1625 70.5 45.7216L63.8 40.7464ZM40 49.1224C33.4 49.1224 28 44.0212 28 37.7865C28 31.5517 33.4 26.4505 40 26.4505C46.6 26.4505 52 31.5517 52 37.7865C52 44.0212 46.6 49.1224 40 49.1224Z"
    fill="black"/>
</svg>
